<svg width="717" height="82" viewBox="0 0 717 82" fill="none" xmlns="http://www.w3.org/2000/svg">
<path d="M0 11.0517C0 11.0517 95.1313 43.2023 158 42.0517C215.514 40.9991 244.479 11.586 302 11.0517C374.929 10.3743 410.783 67.2391 483 57.0517C536.477 49.5078 555.026 1.9228 609 0.0516873C652.853 -1.46856 717 31.0517 717 31.0517V81.0517H0V11.0517Z" fill="black"/>
<path d="M0 11.0517C0 11.0517 95.1313 43.2023 158 42.0517C215.514 40.9991 244.479 11.586 302 11.0517C374.929 10.3743 410.783 67.2391 483 57.0517C536.477 49.5078 555.026 1.9228 609 0.0516873C652.853 -1.46856 717 31.0517 717 31.0517V81.0517H0V11.0517Z" fill="black"/>
</svg>
