<svg width="717" height="51" viewBox="0 0 717 51" fill="none" xmlns="http://www.w3.org/2000/svg">
<path d="M0 50.0001C0 50.0001 62.6313 22.8494 125.5 24.0001C183.014 25.0527 232.479 42.9658 290 43.5C362.929 44.1774 410.783 13.8126 483 24.0001C536.477 31.5439 550.526 48.1289 604.5 50.0001C648.353 51.5203 717 19.5 717 19.5V5.34058e-05H0V50.0001Z" fill="#000000"/>
<path d="M0 50.0001C0 50.0001 62.6313 22.8494 125.5 24.0001C183.014 25.0527 232.479 42.9658 290 43.5C362.929 44.1774 410.783 13.8126 483 24.0001C536.477 31.5439 550.526 48.1289 604.5 50.0001C648.353 51.5203 717 19.5 717 19.5V5.34058e-05H0V50.0001Z" fill="black"/>
</svg>
