<svg width="50" height="50" xmlns="http://www.w3.org/2000/svg">

 <g>
  <title>Layer 1</title>
  <path id="svg_1" d="m25,2c-0.71484,0 -1.42969,0.17969 -2.06641,0.53906l-16.84375,9.46485c-1.28906,0.72265 -2.08984,2.07812 -2.08984,3.53125l0,18.92968c0,1.45313 0.80078,2.8086 2.08984,3.53125l16.84375,9.46485c0.63672,0.35937 1.35157,0.53906 2.06641,0.53906c0.71484,0 1.42969,-0.17969 2.06641,-0.53906l16.84375,-9.46094c1.28906,-0.72656 2.08984,-2.08203 2.08984,-3.53516l0,-18.92968c0,-1.45313 -0.80078,-2.8086 -2.08984,-3.53125l-16.84375,-9.46485c-0.63672,-0.35937 -1.35157,-0.53906 -2.06641,-0.53906zm0,11c3.78125,0 7.27734,1.75391 9.54297,4.73828l-4.38281,2.53906c-1.31641,-1.4414 -3.1875,-2.27734 -5.16016,-2.27734c-3.85937,0 -7,3.14063 -7,7c0,3.85938 3.14063,7 7,7c1.97266,0 3.84375,-0.83594 5.16016,-2.27734l4.38281,2.53906c-2.26563,2.98437 -5.76172,4.73828 -9.54297,4.73828c-6.61719,0 -12,-5.38281 -12,-12c0,-6.61719 5.38281,-12 12,-12zm10,7l2,0l0,2l2,0l0,-2l2,0l0,2l2,0l0,2l-2,0l0,2l2,0l0,2l-2,0l0,2l-2,0l0,-2l-2,0l0,2l-2,0l0,-2l-2,0l0,-2l2,0l0,-2l-2,0l0,-2l2,0l0,-2zm2,4l0,2l2,0l0,-2l-2,0z"/>
  <rect id="svg_3" height="11.2" width="12.32" y="19.16" x="31.88"/>
 </g>
</svg>