<svg width="717" height="82" viewBox="0 0 717 82" fill="none" xmlns="http://www.w3.org/2000/svg">
<path d="M0 70C0 70 95.1313 37.8494 158 39C215.514 40.0526 244.479 69.4657 302 70C374.929 70.6774 410.783 13.8126 483 24C536.477 31.5439 555.026 79.1289 609 81C652.853 82.5203 717 50 717 50V7.62939e-06H0V70Z" fill="white"/>
<path d="M0 70C0 70 95.1313 37.8494 158 39C215.514 40.0526 244.479 69.4657 302 70C374.929 70.6774 410.783 13.8126 483 24C536.477 31.5439 555.026 79.1289 609 81C652.853 82.5203 717 50 717 50V7.62939e-06H0V70Z" fill="white"/>
</svg>
